<svg xmlns="http://www.w3.org/2000/svg" width="19" height="20" viewBox="0 0 19 20" fill="none">
  <g clip-path="url(#clip0_3570_123)">
    <path d="M9.06672 5.10515C10.7906 5.10515 12.5157 5.11212 14.2396 5.09934C14.5669 5.09702 14.7916 5.19108 14.991 5.4698C15.8184 6.62646 16.663 7.7715 17.5089 8.91423C17.7128 9.18946 17.7048 9.42172 17.4904 9.68998C14.8561 12.9869 12.2276 16.2897 9.59565 19.5878C9.15661 20.1382 8.94803 20.1371 8.50553 19.5808C5.92656 16.3501 3.3499 13.117 0.775542 9.88276C0.344562 9.34159 0.346867 9.26494 0.744429 8.72145C1.53264 7.6426 2.32891 6.57071 3.1056 5.48257C3.3015 5.2085 3.51814 5.09586 3.85002 5.09818C5.59007 5.11212 7.32782 5.10515 9.06672 5.10515ZM16.2793 8.82945C15.6374 7.95151 15.052 7.17459 14.4966 6.37445C14.3261 6.12826 14.1428 6.05858 13.8651 6.05974C10.657 6.06787 7.44997 6.06787 4.24182 6.05974C3.9641 6.05858 3.78088 6.12942 3.61033 6.37445C3.03646 7.20014 2.43147 8.00377 1.83916 8.81552C1.72393 8.97346 1.60985 9.13255 1.49922 9.28585C4.02979 12.4609 6.53039 15.5964 9.0552 18.7644C11.4532 15.7543 13.8075 12.7988 16.2286 9.75966C15.967 9.75966 15.8161 9.75966 15.6651 9.75966C14.9725 9.7585 14.28 9.76198 13.5886 9.75385C13.3074 9.75037 13.1288 9.59243 13.1265 9.29862C13.1242 9.00481 13.297 8.85152 13.5793 8.83526C13.7061 8.82829 13.834 8.82945 13.9608 8.82945C14.6925 8.82945 15.4254 8.82945 16.2793 8.82945Z" fill="white"/>
    <path d="M10.8413 2.33077C10.5094 2.33077 10.2433 2.33426 9.97706 2.32961C9.69128 2.32497 9.47579 2.1438 9.51727 1.88367C9.54608 1.69786 9.76157 1.4598 9.94249 1.40057C10.1972 1.31812 10.4968 1.37967 10.8402 1.37967C10.8402 1.09979 10.8402 0.859401 10.8402 0.620172C10.8402 0.274103 10.9612 -0.0104168 11.3322 3.49244e-05C11.6756 0.0104867 11.7932 0.277587 11.777 0.613204C11.7667 0.843143 11.7747 1.07308 11.7747 1.37154C12.0467 1.37154 12.2944 1.36805 12.5422 1.3727C12.8556 1.3785 13.1241 1.48534 13.123 1.85464C13.1218 2.21697 12.8764 2.34123 12.548 2.3331C12.3106 2.32729 12.072 2.33194 11.7747 2.33194C11.7747 2.61297 11.769 2.86846 11.7759 3.12278C11.7851 3.45956 11.663 3.71157 11.3126 3.71505C10.9531 3.71853 10.8471 3.44447 10.8413 3.12162C10.8379 2.87891 10.8413 2.63504 10.8413 2.33077Z" fill="white"/>
    <path d="M1.34134 4.18303C1.03021 4.18303 0.76632 4.18303 0.502431 4.18303C0.199362 4.18303 0.00115738 4.02045 5.02703e-06 3.71967C-0.00114733 3.41889 0.195905 3.25515 0.500126 3.25515C0.764015 3.25515 1.0279 3.25515 1.33904 3.25515C1.33904 2.9265 1.32521 2.65359 1.3425 2.38301C1.36209 2.07178 1.50383 1.84997 1.84377 1.87087C2.15836 1.89061 2.27245 2.10545 2.27129 2.40507C2.27014 2.6652 2.27129 2.92417 2.27129 3.25282C2.5709 3.25282 2.84632 3.24934 3.12288 3.25398C3.41788 3.25863 3.6207 3.39799 3.62185 3.71734C3.62185 4.0367 3.42134 4.17606 3.12519 4.18071C2.86015 4.18419 2.5951 4.18187 2.27129 4.18187C2.27129 4.50587 2.27475 4.78923 2.27014 5.07375C2.26553 5.35827 2.13647 5.5464 1.84607 5.5673C1.52918 5.58937 1.37361 5.38962 1.34711 5.0993C1.3206 4.81478 1.34134 4.52561 1.34134 4.18303Z" fill="white"/>
    <path d="M16.7471 4.67079C16.4475 4.67079 16.2228 4.67311 15.9981 4.66963C15.6697 4.66382 15.392 4.57092 15.4012 4.16562C15.4104 3.78587 15.6708 3.7011 15.9889 3.70923C16.2251 3.71503 16.4602 3.71039 16.7483 3.71039C16.7483 3.38058 16.7437 3.09374 16.7494 2.80922C16.7552 2.52237 16.8958 2.33192 17.1816 2.32495C17.4916 2.31682 17.6391 2.51192 17.646 2.81967C17.6517 3.09257 17.6471 3.36664 17.6471 3.71155C17.9514 3.71155 18.2268 3.70923 18.501 3.71271C18.7983 3.7162 18.9908 3.85555 18.9977 4.17723C19.0046 4.5024 18.7972 4.64408 18.5149 4.66498C18.2498 4.68472 17.9825 4.66963 17.6494 4.66963C17.6494 4.97389 17.646 5.24331 17.6506 5.51273C17.6552 5.82164 17.5088 6.03764 17.2161 6.04577C16.8981 6.0539 16.7425 5.83442 16.746 5.50577C16.7494 5.2468 16.7471 4.98899 16.7471 4.67079Z" fill="white"/>
    <path d="M5.37458 8.82821C4.97471 8.31027 4.64744 7.87594 4.30865 7.45207C4.09662 7.18613 3.92722 6.92019 4.23144 6.61941C4.46306 6.38947 4.72811 6.47425 5.03809 6.86561C5.46331 7.40445 5.88392 7.94678 6.33679 8.52744C6.72744 8.0304 7.09504 7.56007 7.46379 7.08974C7.56174 6.96548 7.65739 6.84006 7.75879 6.71928C7.94893 6.49167 8.1771 6.40225 8.4237 6.60548C8.68529 6.82032 8.65302 7.08161 8.46058 7.33129C8.09298 7.80859 7.74958 8.3126 7.33934 8.74925C6.93832 9.17544 6.88646 9.55868 7.09273 10.1254C7.88325 12.2924 8.61038 14.4826 9.36057 16.6647C9.379 16.7193 9.39053 16.7762 9.41127 16.8296C9.53687 17.1536 9.58873 17.4869 9.19808 17.6309C8.80283 17.7772 8.65187 17.4706 8.54009 17.1466C7.74612 14.8275 6.94293 12.5107 6.16048 10.1869C6.04985 9.85945 5.90581 9.73984 5.5601 9.75145C4.67049 9.77932 3.77972 9.75842 2.8901 9.7619C2.56399 9.76307 2.26553 9.705 2.26437 9.29622C2.26437 8.8886 2.55938 8.82589 2.8878 8.82821C3.67831 8.8317 4.46652 8.82821 5.37458 8.82821Z" fill="white"/>
    <path d="M11.0914 9.75955C10.4207 9.75955 9.79039 9.75955 9.16006 9.75955C8.83509 9.75955 8.51013 9.76188 8.18517 9.75607C7.88671 9.75143 7.68965 9.6051 7.69426 9.28574C7.69887 8.96522 7.90514 8.83167 8.2013 8.83051C8.87888 8.82819 9.55762 8.82935 10.2352 8.82819C10.3873 8.82819 10.5383 8.82819 10.8022 8.82819C10.4046 8.31257 10.0693 7.87824 9.73623 7.44275C9.66709 7.35217 9.54955 7.24997 9.55531 7.16055C9.56799 6.96662 9.59104 6.72042 9.70973 6.59848C9.91254 6.39177 10.1591 6.48583 10.3332 6.70416C10.7549 7.23023 11.1686 7.76211 11.5858 8.29166C11.6376 8.3567 11.6906 8.42057 11.7724 8.51928C12.1585 8.02573 12.5272 7.5554 12.8948 7.08507C12.9836 6.97242 13.0723 6.85977 13.161 6.74713C13.3546 6.50325 13.5885 6.38596 13.8536 6.60661C14.1371 6.84119 14.0633 7.10946 13.8628 7.36727C13.509 7.81901 13.1714 8.28586 12.8003 8.72135C12.3659 9.23116 12.064 9.79904 11.8543 10.4424C11.376 11.9091 10.8575 13.3619 10.355 14.8205C10.3216 14.9158 10.2894 15.0121 10.2536 15.1062C10.1465 15.3814 9.9425 15.479 9.67631 15.4C9.38707 15.3141 9.32139 15.0714 9.39283 14.8101C9.49539 14.435 9.63252 14.0692 9.76043 13.7022C10.1649 12.5304 10.5705 11.3587 10.975 10.1869C11.0153 10.0685 11.0418 9.94536 11.0914 9.75955Z" fill="white"/>
  </g>
  <defs>
    <clipPath id="clip0_3570_123">
      <rect width="19" height="20" fill="white"/>
    </clipPath>
  </defs>
</svg>