<svg width="20" height="19" viewBox="0 0 20 19" fill="none" xmlns="http://www.w3.org/2000/svg">
<path d="M16.0257 18.9998C15.1541 18.9998 13.9297 18.7004 12.0963 17.7275C9.86683 16.54 8.14237 15.4437 5.92495 13.343C3.78701 11.3136 2.74662 9.99975 1.29052 7.48307C-0.354456 4.64152 -0.074042 3.15203 0.239415 2.51544C0.612706 1.75458 1.16371 1.29951 1.87591 0.847831C2.28043 0.596093 2.70852 0.380297 3.15474 0.20318C3.1994 0.184944 3.24092 0.167555 3.27798 0.151863C3.49901 0.0572858 3.8339 -0.0856401 4.25809 0.0670404C4.54119 0.167979 4.79392 0.374522 5.18953 0.74562C6.00086 1.50563 7.10957 3.19826 7.51858 4.02952C7.79319 4.58977 7.97493 4.9596 7.97537 5.37438C7.97537 5.85999 7.71818 6.23448 7.40606 6.63866C7.34756 6.71458 7.28952 6.7871 7.23325 6.8575C6.89345 7.28161 6.81888 7.40418 6.868 7.62302C6.96758 8.06283 7.71014 9.37206 8.93048 10.5286C10.1508 11.6852 11.4895 12.3459 11.9543 12.4401C12.1945 12.4889 12.3263 12.4151 12.7871 12.0809C12.8532 12.0329 12.921 11.9833 12.992 11.9337C13.468 11.5974 13.844 11.3595 14.3432 11.3595H14.3459C14.7803 11.3595 15.1523 11.5384 15.7685 11.8336C16.5722 12.2187 18.4079 13.2582 19.2129 14.0297C19.6045 14.4046 19.8229 14.6438 19.9296 14.9122C20.0903 15.3164 19.939 15.6332 19.8403 15.8453C19.8238 15.8805 19.8055 15.9191 19.7863 15.9619C19.5983 16.385 19.3698 16.7907 19.1035 17.174C18.6289 17.8484 18.148 18.3705 17.3451 18.7254C16.9329 18.9107 16.4817 19.0045 16.0257 18.9998Z" fill="white"/>
</svg>
